<svg width="20" height="20" viewBox="0 0 20 20" fill="none" xmlns="http://www.w3.org/2000/svg">
<path fill-rule="evenodd" clip-rule="evenodd" d="M14.1924 2.0574C14.2506 2.11545 14.2968 2.18442 14.3283 2.26035C14.3598 2.33629 14.376 2.41769 14.376 2.4999C14.376 2.58211 14.3598 2.66351 14.3283 2.73944C14.2968 2.81537 14.2506 2.88434 14.1924 2.9424L7.13365 9.9999L14.1924 17.0574C14.3098 17.1748 14.3757 17.3339 14.3757 17.4999C14.3757 17.6659 14.3098 17.825 14.1924 17.9424C14.075 18.0598 13.9159 18.1257 13.7499 18.1257C13.5839 18.1257 13.4248 18.0598 13.3074 17.9424L5.8074 10.4424C5.74919 10.3843 5.70301 10.3154 5.67151 10.2394C5.64 10.1635 5.62378 10.0821 5.62378 9.9999C5.62378 9.91769 5.64 9.83629 5.67151 9.76035C5.70301 9.68442 5.74919 9.61545 5.8074 9.5574L13.3074 2.0574C13.3655 1.99919 13.4344 1.95301 13.5104 1.92151C13.5863 1.89 13.6677 1.87378 13.7499 1.87378C13.8321 1.87378 13.9135 1.89 13.9894 1.92151C14.0654 1.95301 14.1343 1.99919 14.1924 2.0574Z" fill="black"/>
</svg>
