<svg width="31" height="30" viewBox="0 0 31 30" fill="none" xmlns="http://www.w3.org/2000/svg">
<path fill-rule="evenodd" clip-rule="evenodd" d="M6.00625 0.3875C6.09649 0.267185 6.2135 0.169532 6.34801 0.102274C6.48253 0.0350156 6.63086 0 6.78125 0H24.2188C24.3691 0 24.5175 0.0350156 24.652 0.102274C24.7865 0.169532 24.9035 0.267185 24.9938 0.3875L30.7598 8.08712C31.0484 8.44556 31.062 8.959 30.7791 9.33488L16.275 28.675C16.1848 28.7953 16.0678 28.893 15.9332 28.9602C15.7987 29.0275 15.6504 29.0625 15.5 29.0625C15.3496 29.0625 15.2013 29.0275 15.0668 28.9602C14.9322 28.893 14.8152 28.7953 14.725 28.675L0.19375 9.3C0.0679848 9.13231 0 8.92836 0 8.71875C0 8.50914 0.0679848 8.30519 0.19375 8.1375L6.00625 0.3875ZM28.0666 7.72094L24.5675 3.05156L23.064 7.72675L28.0666 7.72094ZM21.0277 7.72869L22.8896 1.9375H8.11038L9.97619 7.74031L21.0277 7.72869ZM10.5981 9.67781L20.4058 9.66812L15.5 24.9279L10.5981 9.67781ZM7.94181 7.74225L6.43056 3.04962L2.90819 7.74806L7.94181 7.74225ZM2.90431 9.6875L8.56181 9.68169L12.8108 22.8954L2.90625 9.6875H2.90431ZM18.1893 22.8954L22.4401 9.66619L28.1151 9.66038L18.1893 22.8954Z" fill="#EE0D21"/>
</svg>
