<svg width="24" height="20" viewBox="0 0 24 20" fill="none" xmlns="http://www.w3.org/2000/svg">
<path fill-rule="evenodd" clip-rule="evenodd" d="M14.4576 3H20.4306C20.8474 2.99996 21.2598 3.0868 21.6412 3.25499C22.0226 3.42317 22.3649 3.66902 22.646 3.97683C22.9271 4.28465 23.141 4.64768 23.2741 5.04276C23.4071 5.43785 23.4563 5.85633 23.4186 6.2715L22.4631 16.7715C22.3953 17.5169 22.0514 18.21 21.4989 18.7148C20.9463 19.2197 20.225 19.4997 19.4766 19.5H3.95456C3.20611 19.4997 2.48481 19.2197 1.93225 18.7148C1.37969 18.21 1.03579 17.5169 0.968056 16.7715L0.0125562 6.2715C-0.0513645 5.57667 0.130147 4.88141 0.525556 4.3065L0.465556 3C0.465556 2.20435 0.781627 1.44129 1.34424 0.87868C1.90684 0.316071 2.66991 0 3.46556 0H8.97356C9.76914 0.000169912 10.5321 0.316352 11.0946 0.879L12.3366 2.121C12.899 2.68365 13.662 2.99983 14.4576 3ZM1.97456 3.18C2.29556 3.063 2.64056 3 3.00056 3H11.0946L10.0341 1.9395C9.75282 1.65818 9.37135 1.50008 8.97356 1.5H3.46556C3.07262 1.49993 2.69535 1.65405 2.41485 1.92922C2.13435 2.20439 1.97302 2.57864 1.96556 2.9715L1.97456 3.18Z" fill="white"/>
</svg>
