<?xml version="1.0" encoding="UTF-8" standalone="no"?>
<svg
   width="24"
   height="11"
   viewBox="0 0 24 11"
   fill="none"
   version="1.1"
   id="svg1"
   sodipodi:docname="key.svg"
   inkscape:version="1.3.2 (091e20e, 2023-11-25, custom)"
   xmlns:inkscape="http://www.inkscape.org/namespaces/inkscape"
   xmlns:sodipodi="http://sodipodi.sourceforge.net/DTD/sodipodi-0.dtd"
   xmlns="http://www.w3.org/2000/svg"
   xmlns:svg="http://www.w3.org/2000/svg">
  <defs
     id="defs1" />
  <sodipodi:namedview
     id="namedview1"
     pagecolor="#ffffff"
     bordercolor="#000000"
     borderopacity="0.25"
     inkscape:showpageshadow="2"
     inkscape:pageopacity="0.0"
     inkscape:pagecheckerboard="0"
     inkscape:deskcolor="#d1d1d1"
     inkscape:zoom="24.100556"
     inkscape:cx="-0.12447846"
     inkscape:cy="4.2115211"
     inkscape:window-width="2462"
     inkscape:window-height="1411"
     inkscape:window-x="89"
     inkscape:window-y="-9"
     inkscape:window-maximized="1"
     inkscape:current-layer="svg1" />
  <path
     fill-rule="evenodd"
     clip-rule="evenodd"
     d="M5.24892 10.5C4.30943 10.4998 3.38721 10.2475 2.57846 9.76945C1.76971 9.29138 1.10406 8.60504 0.650952 7.78205C0.197845 6.95905 -0.0261194 6.02955 0.00242417 5.0905C0.0309678 4.15145 0.310973 3.23726 0.81323 2.4433C1.31549 1.64934 2.02159 1.00471 2.85789 0.576641C3.69418 0.148574 4.63002 -0.0472393 5.56778 0.00962804C6.50555 0.0664953 7.41087 0.373959 8.18931 0.899946C8.96775 1.42593 9.59078 2.15117 9.99342 3L20.9989 3L23.2489 5.25L20.9989 7.5L19.4989 6L17.9989 7.5L16.4989 6L14.9989 7.5L13.4989 6L11.9989 7.5H9.99342C9.56756 8.3978 8.89565 9.1563 8.05579 9.68735C7.21592 10.2184 6.24259 10.5002 5.24892 10.5ZM3.74892 6.75C4.14674 6.75 4.52827 6.59197 4.80958 6.31066C5.09088 6.02936 5.24892 5.64783 5.24892 5.25C5.24892 4.85218 5.09088 4.47065 4.80958 4.18934C4.52827 3.90804 4.14674 3.75 3.74892 3.75C3.35109 3.75 2.96956 3.90804 2.68826 4.18934C2.40695 4.47065 2.24892 4.85218 2.24892 5.25C2.24892 5.64783 2.40695 6.02936 2.68826 6.31066C2.96956 6.59197 3.35109 6.75 3.74892 6.75Z"
     fill="white"
     id="path1"
     style="fill:#ee0d21;fill-opacity:1" />
</svg>
